SQR Cal 0P6 2mins																																				
version=1																																				
nRows=55																																				
nColumns=37																																				
inDegrees=yes																																				
endheader																																				
time	ground_force1_vx	ground_force1_vy	ground_force1_vz	ground_force1_px	ground_force1_py	ground_force1_pz	ground_torque1_x	ground_torque1_y	ground_torque1_z	ground_force2_vx	ground_force2_vy	ground_force2_vz	ground_force2_px	ground_force2_py	ground_force2_pz	ground_torque2_x	ground_torque2_y	ground_torque2_z	femur_assistance_force_vx	femur_assistance_force_vy	femur_assistance_force_vz	femur_assistance_force_px	femur_assistance_force_py	femur_assistance_force_pz	femur_assistance_torque_x	femur_assistance_torque_y	femur_assistance_torque_z	tibia_assistance_force_vx	tibia_assistance_force_vy	tibia_assistance_force_vz	tibia_assistance_force_px	tibia_assistance_force_py	tibia_assistance_force_pz	tibia_assistance_torque_x	tibia_assistance_torque_y	tibia_assistance_torque_z
95	225.924988	718.522034	72.37587	0.924757	0	-0.717465	0.000038	4.893673	0.000045	-11.480485	25.995485	-0.903396	1.12505	0	-0.48305	0	3.230411	0.000002	0	0	0	0	0	0	0	0	0	0	0	0	0	0	0	0	0	0
95.001	226.459045	718.522034	73.215103	0.924927	0	-0.71772	0.000027	5.055448	0.00004	-11.709367	29.505007	-0.750809	1.140171	0	-0.47524	0	1.075046	0.000001	0	0	0	0	0	0	0	0	0	0	0	0	0	0	0	0	0	0
95.002	226.306458	718.979797	74.13063	0.924508	0	-0.717975	0.000016	4.9751	0.000029	-11.633073	33.77747	-2.429276	1.187492	0	-0.4856	0	-0.168935	0.000002	0	0	0	0	0	0	0	0	0	0	0	0	0	0	0	0	0	0
95.003	225.7724	718.216858	75.351334	0.92532	0	-0.717634	0.000045	4.990896	0.000024	-11.861955	39.728397	-4.718094	1.184757	0	-0.498895	0	-0.368863	-0.000001	0	0	0	0	0	0	0	0	0	0	0	0	0	0	0	0	0	0
95.004	225.162048	718.522034	76.572037	0.924417	0	-0.717889	0.000034	5.153753	0.000012	-11.861955	47.205204	-6.243973	1.206566	0	-0.505212	0	0.246225	0	0	0	0	0	0	0	0	0	0	0	0	0	0	0	0	0	0	0
95.005	225.162048	719.284973	77.869034	0.923437	0	-0.718145	0.000031	5.011112	0.000026	-10.0309	55.139774	-6.930618	1.236615	0	-0.51221	0.000002	1.099486	0.000006	0	0	0	0	0	0	0	0	0	0	0	0	0	0	0	0	0	0
95.006	225.00946	719.132385	78.403091	0.923802	0	-0.7184	0.000037	5.042208	0.000054	-6.673967	63.989872	-7.083206	1.24872	0	-0.509091	0	1.891942	0.000005	0	0	0	0	0	0	0	0	0	0	0	0	0	0	0	0	0	0
95.007	224.856873	719.132385	78.708267	0.923293	0	-0.7184	0.000037	4.922327	0.000015	-1.180803	72.992554	-6.77803	1.26696	0	-0.50567	0.000001	2.007766	0.000005	0	0	0	0	0	0	0	0	0	0	0	0	0	0	0	0	0	0
95.008	224.551697	718.06427	78.250504	0.923306	0	-0.718824	0.000055	4.760237	0.000057	4.464949	82.300415	-6.701736	1.286827	0	-0.496686	0	1.853985	-0.000001	0	0	0	0	0	0	0	0	0	0	0	0	0	0	0	0	0	0
95.009	223.483582	716.843567	77.869034	0.923346	0	-0.718738	0.000035	4.151587	0.000032	9.195174	92.06604	-8.227615	1.280269	0	-0.494386	0.000002	1.435286	0.000012	0	0	0	0	0	0	0	0	0	0	0	0	0	0	0	0	0	0
95.01	222.87323	716.538391	77.334976	0.923569	0	-0.719249	0.000051	3.964016	0.00005	13.238753	103.510132	-10.363846	1.257832	0	-0.486898	0	-0.647809	0.000006	0	0	0	0	0	0	0	0	0	0	0	0	0	0	0	0	0	0
95.011	222.87323	716.233215	77.945328	0.924985	0	-0.719334	0.000034	3.820252	0.000042	17.968977	114.649048	-12.347488	1.245293	0	-0.480053	0.000005	-3.295299	0.000005	0	0	0	0	0	0	0	0	0	0	0	0	0	0	0	0	0	0
95.012	222.949524	716.385803	78.326797	0.925129	0	-0.71959	0.00005	3.734849	0.000046	24.377668	123.956909	-13.110428	1.234506	0	-0.477489	0.000006	-5.683744	0.000004	0	0	0	0	0	0	0	0	0	0	0	0	0	0	0	0	0	0
95.013	222.949524	716.538391	78.403091	0.926124	0	-0.71993	0.000019	3.327159	0.000052	31.625593	132.501831	-12.500076	1.222147	0	-0.472491	0.000004	-6.964789	0.000006	0	0	0	0	0	0	0	0	0	0	0	0	0	0	0	0	0	0
95.014	222.415466	715.622864	77.945328	0.92748	0	-0.719846	0	2.657544	0.000045	37.652817	141.351929	-11.126785	1.212988	0	-0.466225	0.000001	-6.779303	0.00002	0	0	0	0	0	0	0	0	0	0	0	0	0	0	0	0	0	0
95.015	221.652527	715.012512	76.724625	0.926564	0	-0.720359	0.000038	2.159921	0.00005	41.467514	148.676147	-10.44014	1.209885	0	-0.465016	0.000005	-5.832895	-0.000001	0	0	0	0	0	0	0	0	0	0	0	0	0	0	0	0	0	0
95.016	221.499939	714.859924	75.580215	0.925567	0	-0.720957	0.000014	1.759624	0.000005	43.145981	155.237427	-11.203079	1.20986	0	-0.466593	0.000004	-4.721057	0.000005	0	0	0	0	0	0	0	0	0	0	0	0	0	0	0	0	0	0
95.017	221.499939	713.791809	74.89357	0.925584	0	-0.720874	0.000043	1.740851	0.000031	45.205917	161.951294	-14.483719	1.207944	0	-0.4725	0.000004	-3.961021	0.000014	0	0	0	0	0	0	0	0	0	0	0	0	0	0	0	0	0	0
95.018	221.194763	713.334045	74.5121	0.924466	0	-0.721303	0.000007	1.899713	0.000056	48.028793	167.749634	-18.145828	1.211308	0	-0.474724	0.000005	-3.60253	0.000003	0	0	0	0	0	0	0	0	0	0	0	0	0	0	0	0	0	0
95.019	220.965881	713.486633	74.13063	0.923755	0	-0.721644	0.000022	1.711251	0.000036	51.233139	171.259155	-20.587234	1.215709	0	-0.474262	0.000003	-3.516976	0.000015	0	0	0	0	0	0	0	0	0	0	0	0	0	0	0	0	0	0
95.02	220.660706	714.096985	73.291397	0.923649	0	-0.72207	0.000036	1.607722	-0.000009	53.903427	173.242798	-21.579056	1.220109	0	-0.472002	0	-2.811552	0.000008	0	0	0	0	0	0	0	0	0	0	0	0	0	0	0	0	0	0
95.021	221.347351	714.096985	72.757339	0.923649	0	-0.722582	0.000034	0.856358	-0.000009	54.361191	174.158325	-21.579056	1.227013	0	-0.467769	0.000002	-0.817456	0.000008	0	0	0	0	0	0	0	0	0	0	0	0	0	0	0	0	0	0
95.022	222.339172	713.02887	71.765518	0.924348	0	-0.72216	0.000014	0.683795	0.000021	51.843491	173.395386	-21.426468	1.230299	0	-0.467363	0.000006	1.546222	0.000001	0	0	0	0	0	0	0	0	0	0	0	0	0	0	0	0	0	0
95.023	223.483582	712.26593	70.849991	0.92311	0	-0.721991	0.000021	0.888989	0.000048	47.57103	172.937622	-21.65535	1.227203	0	-0.4686	0.000004	3.332489	0.000002	0	0	0	0	0	0	0	0	0	0	0	0	0	0	0	0	0	0
95.024	224.399109	710.892639	70.087051	0.923692	0	-0.721825	0.000031	0.610682	0.000046	43.222275	171.564331	-23.715286	1.226354	0	-0.474485	0.000003	5.426483	-0.000003	0	0	0	0	0	0	0	0	0	0	0	0	0	0	0	0	0	0
95.025	225.238342	710.892639	69.85817	0.923005	0	-0.72234	0.000026	-0.072141	0.000038	41.00975	168.817749	-26.614456	1.227506	0	-0.485821	0.000005	7.339212	0.000016	0	0	0	0	0	0	0	0	0	0	0	0	0	0	0	0	0	0
95.026	226.077576	709.671936	68.866348	0.924248	0	-0.722948	-0.000007	-0.14523	0.000026	40.323105	167.749634	-27.682571	1.222223	0	-0.491461	0.000001	7.816792	0.000015	0	0	0	0	0	0	0	0	0	0	0	0	0	0	0	0	0	0
95.027	226.916809	707.840881	68.408585	0.924915	0	-0.72313	0.000026	-0.208984	0.000052	40.323105	167.597046	-26.69075	1.218966	0	-0.487903	0.000006	7.881801	-0.000001	0	0	0	0	0	0	0	0	0	0	0	0	0	0	0	0	0	0
95.028	227.450867	706.315002	68.179703	0.923975	0	-0.723484	0.000034	-0.778815	0.000026	40.857162	167.444458	-23.562698	1.212786	0	-0.481421	0.000008	7.04024	0.000003	0	0	0	0	0	0	0	0	0	0	0	0	0	0	0	0	0	0
95.029	227.221985	704.33136	67.645645	0.924151	0	-0.723583	0.000006	-1.325816	0.000035	41.086044	165.308228	-19.900589	1.215905	0	-0.479889	0.000004	6.642044	0.00001	0	0	0	0	0	0	0	0	0	0	0	0	0	0	0	0	0	0
95.03	226.382751	703.56842	66.882706	0.924979	0	-0.723414	0.00005	-1.519282	0.000024	42.001572	162.409058	-16.696243	1.218068	0	-0.482442	0.000002	4.920923	0.000006	0	0	0	0	0	0	0	0	0	0	0	0	0	0	0	0	0	0
95.031	225.467224	704.178772	66.806412	0.924698	0	-0.723844	0.000048	-1.767029	0.000039	43.985214	160.272827	-14.865189	1.217547	0	-0.485446	0.000008	3.607901	0.000001	0	0	0	0	0	0	0	0	0	0	0	0	0	0	0	0	0	0
95.032	224.475403	704.33136	67.264175	0.924497	0	-0.723496	0.000031	-1.941596	0.000054	48.028793	159.3573	-12.271194	1.216116	0	-0.48517	-0.000001	0.923727	0.000011	0	0	0	0	0	0	0	0	0	0	0	0	0	0	0	0	0	0
95.033	223.483582	703.721008	68.179703	0.923912	0	-0.723066	0.000027	-2.495088	0.000068	54.284897	157.373657	-9.753495	1.220586	0	-0.484693	0.000004	-1.746907	0.000005	0	0	0	0	0	0	0	0	0	0	0	0	0	0	0	0	0	0
95.034	223.102112	703.721008	68.637466	0.922871	0	-0.723673	0.000026	-3.133142	0.000019	60.998764	154.016724	-7.006913	1.224997	0	-0.486142	0.00001	-3.772355	0.000006	0	0	0	0	0	0	0	0	0	0	0	0	0	0	0	0	0	0
95.035	221.805115	704.941711	68.637466	0.921792	0	-0.724531	0.000019	-3.823404	0.000011	67.331161	150.812378	-3.115922	1.231599	0	-0.485949	0.000005	-5.541188	0.000006	0	0	0	0	0	0	0	0	0	0	0	0	0	0	0	0	0	0
95.036	220.279236	704.789124	69.018936	0.921472	0	-0.724706	0.000061	-4.122222	0.000027	72.748032	148.676147	1.538009	1.22959	0	-0.483079	0.000001	-7.284696	0.000019	0	0	0	0	0	0	0	0	0	0	0	0	0	0	0	0	0	0
95.037	219.59259	705.552063	70.010757	0.921341	0	-0.724786	0.000034	-4.094755	0.00005	77.325668	144.708862	6.115645	1.227027	0	-0.487887	0.000004	-9.804533	0.000014	0	0	0	0	0	0	0	0	0	0	0	0	0	0	0	0	0	0
95.038	219.516296	704.636536	71.078873	0.922538	0	-0.723841	0.000028	-3.521625	0.000023	81.21666	140.436401	9.777755	1.223503	0	-0.497514	0.000004	-11.816904	0.000013	0	0	0	0	0	0	0	0	0	0	0	0	0	0	0	0	0	0
95.039	220.050354	703.873596	71.841812	0.922324	0	-0.723933	0.000023	-2.737425	0.000008	85.183945	138.757935	12.753219	1.211911	0	-0.497374	0.000006	-12.510674	0.000011	0	0	0	0	0	0	0	0	0	0	0	0	0	0	0	0	0	0
95.04	220.508118	701.737366	72.223282	0.92374	0	-0.723773	0.000036	-2.426124	0.000022	89.761581	139.06311	14.12651	1.208373	0	-0.49365	0.000008	-12.466382	0.000007	0	0	0	0	0	0	0	0	0	0	0	0	0	0	0	0	0	0
95.041	221.576233	700.516663	72.681046	0.922736	0	-0.723694	0.000035	-1.908885	0.000017	93.347397	139.06311	14.507979	1.200473	0	-0.491455	0.000002	-11.448314	0	0	0	0	0	0	0	0	0	0	0	0	0	0	0	0	0	0	0
95.042	222.339172	700.058899	73.138809	0.92299	0	-0.723871	0.000014	-1.294134	0.000039	95.331039	139.978638	13.897628	1.185645	0	-0.489549	0.000004	-9.410589	0.000014	0	0	0	0	0	0	0	0	0	0	0	0	0	0	0	0	0	0
95.043	222.949524	699.906311	73.443985	0.922843	0	-0.723611	0.000014	0.016137	0.000039	95.788803	142.267456	13.74504	1.173434	0	-0.486392	0.000004	-6.786286	0.000005	0	0	0	0	0	0	0	0	0	0	0	0	0	0	0	0	0	0
95.044	224.170227	698.990784	73.901749	0.923178	0	-0.723093	0.000028	0.839283	0.000013	96.017685	144.251099	14.279098	1.1793	0	-0.484781	0.000004	-4.828832	0.000005	0	0	0	0	0	0	0	0	0	0	0	0	0	0	0	0	0	0
95.045	224.856873	697.159729	74.206924	0.922276	0	-0.72249	0.000016	1.215074	0.000033	96.551743	146.539917	14.202804	1.184205	0	-0.481791	0	-2.215232	0.000013	0	0	0	0	0	0	0	0	0	0	0	0	0	0	0	0	0	0
95.046	225.619812	695.63385	73.901749	0.920263	0	-0.721795	0.000037	2.043608	0.000053	96.856918	150.507202	13.058394	1.182188	0	-0.475579	0.000003	0.902626	0.000008	0	0	0	0	0	0	0	0	0	0	0	0	0	0	0	0	0	0
95.047	226.382751	694.870911	73.520279	0.919165	0	-0.721974	0.000005	2.371937	0.000018	96.017685	155.084839	10.693282	1.185863	0	-0.471381	0.000002	3.607127	0.000022	0	0	0	0	0	0	0	0	0	0	0	0	0	0	0	0	0	0
95.048	227.832336	695.786438	73.138809	0.917956	0	-0.722672	0.000015	3.410851	0.000042	94.034042	160.730591	6.191939	1.187498	0	-0.468873	0.000004	7.176089	-0.000001	0	0	0	0	0	0	0	0	0	0	0	0	0	0	0	0	0	0
95.049	229.815979	696.701965	73.520279	0.916574	0	-0.723106	0.000031	4.581581	0.000004	90.905991	165.460815	1.995773	1.188225	0	-0.469487	0.000001	10.15053	0.000017	0	0	0	0	0	0	0	0	0	0	0	0	0	0	0	0	0	0
95.05	231.494446	695.481262	74.13063	0.917306	0	-0.722498	0.000022	5.566794	0.000026	86.099472	168.970337	-0.827103	1.182329	0	-0.467321	0.000005	12.830145	0.000018	0	0	0	0	0	0	0	0	0	0	0	0	0	0	0	0	0	0
95.051	232.638855	694.870911	73.291397	0.91653	0	-0.722413	0.000027	6.806156	0.000011	80.45372	170.953979	-2.429276	1.180748	0	-0.469753	0.000005	14.966044	0.000011	0	0	0	0	0	0	0	0	0	0	0	0	0	0	0	0	0	0
95.052	233.249207	693.802795	72.223282	0.91671	0	-0.722418	0.000024	6.914523	0.00006	75.03685	173.09021	-2.963334	1.185217	0	-0.473124	0.000001	15.582201	0.000018	0	0	0	0	0	0	0	0	0	0	0	0	0	0	0	0	0	0
95.053	233.3255	692.429504	70.544815	0.917118	0	-0.722248	0.000023	6.663284	0.000036	70.382919	175.684204	-2.734452	1.189258	0	-0.472739	0.000005	15.35369	0.000003	0	0	0	0	0	0	0	0	0	0	0	0	0	0	0	0	0	0
95.054	233.249207	691.666565	69.400406	0.917423	0	-0.722428	0.000022	6.09349	0.000034	66.186752	179.346313	-3.344804	1.188115	0	-0.469212	0.000004	14.569721	0	0	0	0	0	0	0	0	0	0	0	0	0	0	0	0	0	0	0
